<svg width="48" height="48" viewBox="0 0 48 48" fill="none" xmlns="http://www.w3.org/2000/svg">
<circle cx="24" cy="24" r="23" fill="white"/>
<path d="M0 24C0 10.7452 10.7452 0 24 0C37.2548 0 48 10.7452 48 24C48 37.2548 37.2548 48 24 48C10.7452 48 0 37.2548 0 24Z" fill="#BA1B1D"/>
<path fill-rule="evenodd" clip-rule="evenodd" d="M23.5746 13.507C23.3158 13.5069 23.0759 13.5068 22.853 13.5071V13.5039C20.4674 13.5066 20.0097 13.5226 18.8289 13.5759C17.5809 13.6332 16.9033 13.8412 16.4521 14.0172C15.8548 14.2498 15.4281 14.5271 14.9801 14.9751C14.5321 15.4231 14.2542 15.8498 14.0222 16.4471C13.847 16.8983 13.6385 17.5757 13.5814 18.8237C13.5201 20.173 13.5078 20.5762 13.5078 23.9944C13.5078 27.4126 13.5201 27.8179 13.5814 29.1673C13.6382 30.4153 13.847 31.0926 14.0222 31.5433C14.2548 32.1409 14.5321 32.5665 14.9801 33.0145C15.4281 33.4625 15.8548 33.7399 16.4521 33.9719C16.9036 34.1471 17.5809 34.3556 18.8289 34.4132C20.1783 34.4745 20.5834 34.4879 24.0013 34.4879C27.4189 34.4879 27.8242 34.4745 29.1736 34.4132C30.4216 34.3561 31.0995 34.1481 31.5501 33.9721C32.1477 33.7401 32.5731 33.4628 33.0211 33.0148C33.4691 32.567 33.747 32.1417 33.979 31.5444C34.1542 31.0937 34.3627 30.4163 34.4198 29.1683C34.4811 27.819 34.4944 27.4137 34.4944 23.9976C34.4944 20.5816 34.4811 20.1762 34.4198 18.8269C34.363 17.5789 34.1542 16.9015 33.979 16.4509C33.7464 15.8535 33.4691 15.4269 33.0211 14.9789C32.5733 14.5309 32.1475 14.2535 31.5501 14.0215C31.0989 13.8463 30.4216 13.6378 29.1736 13.5807C27.824 13.5194 27.4189 13.5071 24.0013 13.5071C23.8535 13.5071 23.7114 13.507 23.5746 13.507ZM29.2978 17.1679C29.2978 16.3197 29.9859 15.6325 30.8339 15.6325V15.6319C31.6819 15.6319 32.3699 16.3199 32.3699 17.1679C32.3699 18.016 31.6819 18.704 30.8339 18.704C29.9859 18.704 29.2978 18.016 29.2978 17.1679Z" fill="#BA1B1D"/>
<path d="M24.0011 19.7344C26.3574 19.7344 28.2678 21.6445 28.2678 24.0011C28.2678 26.3574 26.3574 28.2678 24.0011 28.2678C21.6445 28.2678 19.7344 26.3574 19.7344 24.0011C19.7344 21.6445 21.6445 19.7344 24.0011 19.7344Z" fill="#BA1B1D"/>
<path d="M29.9176 10H25.1988V29.0724C25.1988 31.3449 23.3839 33.2116 21.1253 33.2116C18.8667 33.2116 17.0518 31.3449 17.0518 29.0724C17.0518 26.8406 18.8264 25.0145 21.0043 24.9333V20.1449C16.2048 20.2261 12.333 24.1623 12.333 29.0724C12.333 34.0232 16.2855 38 21.1657 38C26.0457 38 29.9982 33.9826 29.9982 29.0724V19.2927C31.7729 20.5913 33.9507 21.3623 36.2497 21.4029V16.6145C32.7005 16.4928 29.9176 13.571 29.9176 10Z" fill="white"/>
</svg>
